<?xml version="1.0" encoding="utf-8"?>
<!-- Generator: Adobe Illustrator 26.0.3, SVG Export Plug-In . SVG Version: 6.00 Build 0)  -->
<svg version="1.1" id="Layer_1" xmlns="http://www.w3.org/2000/svg" xmlns:xlink="http://www.w3.org/1999/xlink" x="0px" y="0px"
	 viewBox="0 0 827.3 541.1" style="enable-background:new 0 0 827.3 541.1;" xml:space="preserve">
<style type="text/css">
	.st0{fill:#4155A4;}
	.st1{fill:#34B44A;}
	.st2{fill:#EC2527;}
</style>
<path class="st0" d="M516,387.2c-4,26-14.3,46.5-31.3,61.5s-38.2,22.5-63.2,22.5c-33.3,0-59.7-11.9-79.1-35.6
	c-10.8-13.2-18.6-29.3-23.4-48.4h-84.3c7,38.6,22.4,71.1,46.4,97.7c33.7,37.5,77.5,56.2,131.3,56.2c47.7,0,85.5-18.8,113.5-56.5
	l9.7,45.7H589V387.2H516z"/>
<path class="st0" d="M280.5,188.4c-5.2,5.7-10.1,11.8-14.5,18.2c3.6,1.9,7,4.1,10.3,6.6c5.9,4.6,10.7,10.3,14.2,16.9
	c3.8,7.5,6.5,15.5,8,23.7c2.1,10.6,3.3,21.4,3.6,32.3l0.8,22.9l0.8,22.9c0,3.8,0,7,0.1,9.6s0.2,4.7,0.4,6.3s0.4,3.2,0.7,5.1
	s0.7,3.9,1.1,6.2c0.4,2,1,4,1.7,5.9c0.6,1.6,1.5,3,2.6,4.3c1,1.2,1.6,2.3,2.3,3.3c0.9,1.2,2.1,2.2,3.5,2.9l0.1,0.6
	c-2.3-13.2-3.4-26.5-3.3-39.8c0-41.7,9.4-74.3,28.1-97.8c18.6-23.3,43.7-35.1,75.3-35.2h1.1c49.2,0,88.3,20.2,98.3,60.7V156.7
	c-27.2-15.4-60.3-23.2-99.4-23.5H414c-52.1,0-94.5,16.2-127.3,48.5"/>
<polygon class="st0" points="416.4,387.2 516,387.2 516,320.8 416.3,321.1 "/>
<path class="st0" d="M176.7,66.2H79.6v103H173c20.5,0,35.4-4.2,44.9-12.5c9.4-8.4,14.2-21.4,14.2-39
	C232.1,83.4,213.6,66.2,176.7,66.2z"/>
<path class="st0" d="M746.7,270.7c0-18.6-5.1-31.7-15.2-39.4c-10.1-7.7-26.3-11.6-48.5-11.6v101.2c21.9,0,38-3.9,48.3-11.8
	S746.7,288.4,746.7,270.7z"/>
<path class="st0" d="M736.3,106.7c0-14.7-4.6-25.1-13.8-31.3c-8.6-5.7-21.7-8.8-39.5-9.2v82.4c17.7-0.4,30.8-3.7,39.5-9.9
	C731.7,132.1,736.3,121.5,736.3,106.7z"/>
<path class="st1" d="M318.9,387.2L318.9,387.2c4.8,19,12.6,35.2,23.4,48.4c19.5,23.8,45.8,35.6,79.1,35.6c25,0,46.1-7.5,63.2-22.5
	s27.4-35.5,31.4-61.5l0,0H318.9L318.9,387.2L318.9,387.2z"/>
<path class="st1" d="M308,364.8c-5.7-16.6-3.5-38.4-4.8-56c-1.4-42.7,0.4-92-48.9-107.5c56.5-16.2,66.4-85.1,51.5-135.2l0,0
	c-9.3-31.3-31.6-50.5-63.4-59.4C207.4-5.8,39.7,2.1,0,0v387.2h79.6V236.6H164c17.5,0.3,33.4,2,44.4,13.2
	c13.3,16.4,12.2,46.4,15,68.6c2.6,22.4,2.6,50,11.2,68.9h84.3l-0.1-0.2c-0.4-1.5-1-4-1.3-5.6l0,0c-0.3-1.2-0.8-3.9-1.1-5.4l-0.1-0.6
	c-1.4-0.6-2.6-1.6-3.5-2.9 M79.6,169.3v-103h97.1c36.9,0,55.4,17.2,55.4,51.5c0,17.6-4.7,30.6-14.2,39c-9.4,8.4-24.4,12.6-44.9,12.5
	H79.6z"/>
<path class="st2" d="M318.9,387"/>
<path class="st2" d="M416.3,387.3v-66.2l0,0l0.2-117.8c-31.6,0.1-56.9,11.9-75.5,35.2c-18.7,23.5-28.1,56.1-28.1,97.8
	c-0.1,13.4,1,26.7,3.3,39.8c0,0.1,0,0.2,0.1,0.3c0,0.2,0.1,0.5,0.1,0.8c0,0.2,0,0.3,0.1,0.5c0.3,1.5,0.6,3,0.9,4.5l0.1,0.4
	c0.3,1.4,0.8,3.5,1,4.4"/>
<path class="st1" d="M515.7,66.6l-99.4-0.1v66.9c39.1,0.3,72.2,8.1,99.4,23.5v0.1c6,3.4,11.8,7.2,17.3,11.4
	c30.5,23.3,48.6,55.2,54.4,95.7h-71.7V264c-10-40.5-49.1-60.7-98.3-60.7h-1.1v117.8h99.4h0.1h72.7v66.4h94.3V66.6H515.7z"/>
<path class="st2" d="M587.4,264.1c-5.8-40.5-23.9-72.4-54.4-95.7c-5.5-4.2-11.3-8-17.3-11.4v107v0.1L587.4,264.1L587.4,264.1z"/>
<polygon class="st2" points="516,321.1 516,387.5 516.1,387.5 588.7,387.5 588.7,321.1 "/>
<path class="st2" d="M767.8,177.7c30.6-14.4,45.9-40.9,45.9-79.7c0-31.5-10.3-55.8-31-72.7C762.1,8.5,737.9,0,698.2,0H516.1v66.2
	l167,0.1c17.8,0.4,30.9,3.4,39.5,9.2c9.2,6.1,13.7,16.6,13.7,31.3s-4.6,25.2-13.8,31.9c-8.8,6.2-22,9.5-39.5,9.9l0.1,71.1
	c22.3,0.1,38.5,3.9,48.5,11.6c10.1,7.6,15.1,20.8,15.2,39.4c0,17.7-5.2,30.5-15.5,38.4s-26.4,11.8-48.3,11.8v66.4
	c50.5,0,69.2-7.8,69.2-7.8c17.4-5.2,26.2-12.9,38.4-23.3c24.4-20.7,36.6-49.7,36.6-87C827.3,223.9,807.5,193.5,767.8,177.7z"/>
<path class="st2" d="M228.9,367.6c-1.4-8-2.4-17.5-3.6-28.8l-1.8-20.5l-1.8-20.5c-1.2-11.8-2.5-21.6-4.5-29.6s-4.6-14.1-8.7-18.5
	s-9.8-7.7-17.1-9.9s-16.5-3.3-27.3-3.3H79.6v150.6h155C232,382,230.3,375.5,228.9,367.6z"/>
<path class="st2" d="M287,181.7l-6.3,6.6c-5.2,5.7-10.1,11.8-14.5,18.2l0,0c-3.9-2-7.9-3.7-12-5.2
	C266.6,197.6,277.8,190.9,287,181.7z"/>
<path class="st2" d="M416.7,66.3h-111c0,0,22.4,73.3-18.7,115.5c0,0,44.7-50,129.7-48.6V66.3z"/>
</svg>
