<?xml version="1.0" encoding="utf-8"?>
<!-- Generator: Adobe Illustrator 26.0.3, SVG Export Plug-In . SVG Version: 6.00 Build 0)  -->
<svg version="1.1" id="Layer_1" xmlns="http://www.w3.org/2000/svg" xmlns:xlink="http://www.w3.org/1999/xlink" x="0px" y="0px"
	 viewBox="0 0 6.1 10.2" style="enable-background:new 0 0 6.1 10.2;" xml:space="preserve">
<style type="text/css">
	.st0{stroke:#FFFFFF;stroke-width:0.25;stroke-miterlimit:10;}
</style>
<g>
	<path class="st0" d="M3.7,9.6c-0.5-1.2-1-2.3-1.5-3.6C2.2,6,2.1,6,2,6C1.6,6.5,1.1,7.1,0.7,7.6c-0.1,0.1-0.2,0-0.2-0.1c0,0,0,0,0,0
		l0-6.9c0-0.1,0.1-0.1,0.2-0.1c1.6,1.6,3.2,3.2,4.9,4.9c0.1,0.1,0,0.2-0.1,0.2l-1.9,0c-0.1,0-0.1,0.1-0.1,0.1C4,6.9,4.5,8,4.9,9.1
		c0,0.1,0,0.1-0.1,0.1c-0.3,0.1-0.7,0.3-1,0.4C3.8,9.7,3.7,9.7,3.7,9.6z"/>
</g>
</svg>
